<svg width="24" height="25" viewBox="0 0 24 25" fill="none" xmlns="http://www.w3.org/2000/svg">
<path fill-rule="evenodd" clip-rule="evenodd" d="M11.606 2.94405C11.7305 2.89068 11.8645 2.86316 12 2.86316C12.1355 2.86316 12.2695 2.89068 12.394 2.94405L18.788 5.68505C19.1478 5.8393 19.4545 6.09578 19.6699 6.42269C19.8854 6.74959 20.0002 7.13254 20 7.52405V14.384C19.9999 15.618 19.6736 16.8299 19.0542 17.8971C18.4348 18.9643 17.5443 19.8488 16.473 20.461L12.496 22.733C12.3449 22.8193 12.174 22.8647 12 22.8647C11.826 22.8647 11.6551 22.8193 11.504 22.733L7.527 20.461C6.45537 19.8487 5.5647 18.9639 4.94529 17.8963C4.32589 16.8287 3.99977 15.6163 4 14.382V7.52405C4.00004 7.13271 4.1149 6.74997 4.33033 6.42327C4.54576 6.09656 4.85231 5.84024 5.212 5.68605L11.606 2.94605V2.94405ZM15.707 11.571C15.8892 11.3824 15.99 11.1298 15.9877 10.8676C15.9854 10.6055 15.8802 10.3546 15.6948 10.1692C15.5094 9.98382 15.2586 9.87865 14.9964 9.87638C14.7342 9.8741 14.4816 9.97489 14.293 10.157L11 13.45L9.707 12.157C9.5184 11.9749 9.2658 11.8741 9.0036 11.8764C8.7414 11.8787 8.49059 11.9838 8.30518 12.1692C8.11977 12.3546 8.0146 12.6055 8.01233 12.8676C8.01005 13.1298 8.11084 13.3824 8.293 13.571L10.293 15.571C10.4805 15.7585 10.7348 15.8638 11 15.8638C11.2652 15.8638 11.5195 15.7585 11.707 15.571L15.707 11.571Z" fill="#F57F31"/>
</svg>
